# xmcd
#
# Track frame offsets: 
#        150
#        18448
#        34374
#        56930
#        73793
#        93031
#        114612
#        137806
#        179161
#        196122
#        214621
#        248099
#        279094
#
# Disc length: 3977 seconds
#
# Revision: 0
# Processed by: cddbd v1.5.2PL0 Copyright (c) Steve Scherf et al.
# Submitted via: ExactAudioCopy v1.0b1
#
DISCID=be0f870d
DTITLE=Albert King - Smokin' The Blues
DYEAR=2000
DGENRE=Modern Electric Blues
TTITLE0=Born Under A Bad Sign
TTITLE1=Change Of Pace
TTITLE2=Get Out Of My Life Woman
TTITLE3=Gonna Make It Somehow
TTITLE4=Goodtime Charlie
TTITLE5=Guitar Man
TTITLE6=I Got The Blues
TTITLE7=Watermelon Blues
TTITLE8=Don't Burn Down The Bridge
TTITLE9=Stormy Monday
TTITLE10=Kansas City
TTITLE11=You Upset Me Baby
TTITLE12=Love Shock
EXTD=
EXTT0=
EXTT1=
EXTT2=
EXTT3=
EXTT4=
EXTT5=
EXTT6=
EXTT7=
EXTT8=
EXTT9=
EXTT10=
EXTT11=
EXTT12=
PLAYORDER=
